Coordinates
version=1
nRows=32
nColumns=22
inDegrees=yes

Units are S.I. units (second, meters, Newtons, ...)
If the header above contains a line with 'inDegrees', this indicates whether rotational values are in degrees (yes) or radians (no).

endheader
time	pelvis_tilt	pelvis_list	pelvis_rotation	pelvis_tx	pelvis_ty	pelvis_tz	hip_flexion_r	hip_adduction_r	hip_rotation_r	knee_angle_r	ankle_angle_r	subtalar_angle_r	hip_flexion_l	hip_adduction_l	hip_rotation_l	knee_angle_l	ankle_angle_l	subtalar_angle_l	lumbar_extension	lumbar_bending	lumbar_rotation
      0.01000000	    -12.95624214	      2.02944921	    -14.16865453	     -1.01928228	      0.96482428	     -0.10148655	     28.75815490	     -0.19638454	     -3.84131306	    -32.05173145	     20.12210695	     -4.02032051	     29.08697111	      0.36860769	     -2.92688807	    -30.35718769	     19.30994057	     -2.65064438	     -3.30170205	      0.55210347	      5.52871278
      0.02000000	    -12.95159002	      2.02822872	    -14.18902348	     -1.01935626	      0.96481245	     -0.10144376	     28.76939996	     -0.18990241	     -3.84232165	    -32.07550230	     20.11263233	     -4.01646574	     29.08784465	      0.35958677	     -2.93182608	    -30.36559540	     19.31600369	     -2.65359133	     -3.30197535	      0.54303533	      5.51519664
      0.03000000	    -12.94743917	      2.02971481	    -14.21577922	     -1.01943816	      0.96479116	     -0.10138473	     28.78460760	     -0.18432214	     -3.84501570	    -32.10146673	     20.10251283	     -4.01434055	     29.09209583	      0.34836031	     -2.94698767	    -30.37909313	     19.32373245	     -2.65794819	     -3.29957574	      0.52942324	      5.49972008
      0.04000000	    -12.94446418	      2.03278868	    -14.25062912	     -1.01951873	      0.96476101	     -0.10130875	     28.80401207	     -0.17733365	     -3.84638163	    -32.13021714	     20.09178878	     -4.01330274	     29.09836097	      0.33294921	     -2.97416972	    -30.39533777	     19.33535027	     -2.66446043	     -3.29228303	      0.51356962	      5.48543808
      0.05000000	    -12.94271371	      2.03615626	    -14.29250871	     -1.01960565	      0.96472578	     -0.10121738	     28.82459635	     -0.16715571	     -3.84581704	    -32.15513046	     20.08370108	     -4.01295195	     29.10538970	      0.31399460	     -3.00546856	    -30.41096405	     19.34927418	     -2.67202672	     -3.28460466	      0.49631472	      5.47466702
      0.06000000	    -12.94868325	      2.04677580	    -14.35066027	     -1.01969033	      0.96466806	     -0.10110100	     28.85326711	     -0.15298913	     -3.82471254	    -32.17223106	     20.07541102	     -4.01229587	     29.12427791	      0.28987948	     -3.06177138	    -30.43542949	     19.37605218	     -2.68878336	     -3.26222843	      0.47346705	      5.48891444
      0.07000000	    -12.94209503	      2.04584492	    -14.39112972	     -1.01976823	      0.96463555	     -0.10102882	     28.86929535	     -0.14179981	     -3.82683838	    -32.19957769	     20.07512555	     -4.01273246	     29.12114349	      0.27387663	     -3.07289015	    -30.44405016	     19.38175194	     -2.69288519	     -3.26117697	      0.46540318	      5.46794259
      0.08000000	    -12.93953592	      2.05309720	    -14.44446919	     -1.01984794	      0.96457781	     -0.10094685	     28.89024163	     -0.13127943	     -3.81227920	    -32.22097653	     20.07710921	     -4.01318289	     29.13402250	      0.25203135	     -3.12704439	    -30.47359729	     19.41544054	     -2.70888496	     -3.25271338	      0.44944984	      5.46553586
      0.09000000	    -12.93124915	      2.05261717	    -14.48336936	     -1.01992298	      0.96453762	     -0.10091328	     28.90579392	     -0.12233672	     -3.80675360	    -32.25003791	     20.07961996	     -4.01442573	     29.13167732	      0.23994808	     -3.13535116	    -30.48555369	     19.42395453	     -2.71321447	     -3.25640924	      0.44643953	      5.44209533
      0.10000000	    -12.92096335	      2.05536268	    -14.52183050	     -1.01999684	      0.96448938	     -0.10089127	     28.92024583	     -0.11621254	     -3.79460685	    -32.27880108	     20.08530272	     -4.01644847	     29.13466962	      0.22899135	     -3.15846203	    -30.50991471	     19.44562055	     -2.72038682	     -3.26252531	      0.44175055	      5.41481225
      0.11000000	    -12.91157401	      2.05922574	    -14.55987945	     -1.02005968	      0.96444175	     -0.10088509	     28.93377597	     -0.11053705	     -3.77734703	    -32.30557451	     20.09369181	     -4.01914191	     29.13664143	      0.22033031	     -3.18173710	    -30.53028539	     19.47099127	     -2.72815193	     -3.26702988	      0.43994401	      5.39041337
      0.12000000	    -12.90434106	      2.06853978	    -14.60408060	     -1.02011054	      0.96438811	     -0.10087225	     28.94758773	     -0.10461665	     -3.74429272	    -32.32545707	     20.10922726	     -4.02384925	     29.14121546	      0.21108200	     -3.22361977	    -30.55220962	     19.51438450	     -2.74440666	     -3.26560117	      0.43167542	      5.38143990
      0.13000000	    -12.89525972	      2.06927101	    -14.63406162	     -1.02016043	      0.96435112	     -0.10089120	     28.95949143	     -0.09870463	     -3.72802771	    -32.35192616	     20.11174436	     -4.02551421	     29.13748709	      0.20634409	     -3.22719357	    -30.56234791	     19.52377332	     -2.74812509	     -3.27197248	      0.43558268	      5.35563000
      0.14000000	    -12.88529881	      2.07237941	    -14.66321033	     -1.02020482	      0.96431164	     -0.10091131	     28.96813109	     -0.09409106	     -3.70492733	    -32.37429372	     20.11662768	     -4.02742254	     29.13691229	      0.20300221	     -3.23966154	    -30.57969888	     19.54571992	     -2.75344943	     -3.27874105	      0.43659913	      5.32540547
      0.15000000	    -12.87982060	      2.07547766	    -14.68710476	     -1.02021106	      0.96428482	     -0.10095750	     28.96944097	     -0.09648853	     -3.70313847	    -32.37655086	     20.11786937	     -4.02784521	     29.13427627	      0.20488533	     -3.23857944	    -30.58773059	     19.54986968	     -2.75423692	     -3.27487654	      0.44267301	      5.31651826
      0.16000000	    -12.86870305	      2.07668129	    -14.71776939	     -1.02026358	      0.96424570	     -0.10096774	     28.98228133	     -0.08577831	     -3.66391608	    -32.41129053	     20.12506974	     -4.03081921	     29.13255315	      0.19640167	     -3.25852860	    -30.60548996	     19.58700102	     -2.76029662	     -3.28740366	      0.44409197	      5.27672860
      0.17000000	    -12.86218586	      2.08510580	    -14.76754256	     -1.02027497	      0.96420961	     -0.10095576	     28.98777214	     -0.07480682	     -3.61689699	    -32.41781462	     20.13855828	     -4.03685668	     29.12991318	      0.18353869	     -3.30910446	    -30.61976170	     19.64573665	     -2.77372589	     -3.28363811	      0.44007182	      5.29295914
      0.18000000	    -12.85470642	      2.08757149	    -14.79618334	     -1.02030281	      0.96418321	     -0.10098308	     28.99535402	     -0.07065626	     -3.59500731	    -32.43636051	     20.13810726	     -4.03896624	     29.12846041	      0.18046865	     -3.31578078	    -30.63317525	     19.65404532	     -2.77613226	     -3.28926080	      0.44400443	      5.27562531
      0.19000000	    -12.84819907	      2.09409158	    -14.83191880	     -1.02032829	      0.96415099	     -0.10099147	     29.00353354	     -0.06532180	     -3.56189358	    -32.45141184	     20.14215722	     -4.04290316	     29.13087419	      0.17428657	     -3.34205850	    -30.65299096	     19.68014896	     -2.78019187	     -3.29262516	      0.44215833	      5.26459897
      0.20000000	    -12.84512641	      2.09829606	    -14.85631266	     -1.02031977	      0.96412975	     -0.10102850	     29.00453187	     -0.06826005	     -3.56113571	    -32.45095725	     20.14335120	     -4.04350426	     29.12938191	      0.17583980	     -3.34211892	    -30.66083976	     19.68295707	     -2.78048134	     -3.28924967	      0.44755692	      5.26087194
      0.21000000	    -12.84434763	      2.11415688	    -14.92946712	     -1.02034472	      0.96406187	     -0.10095559	     29.02703168	     -0.04769568	     -3.48007568	    -32.47363572	     20.16780634	     -4.05515484	     29.14127999	      0.14836327	     -3.44070163	    -30.69241822	     19.75375617	     -2.78835080	     -3.28132711	      0.43360058	      5.29908291
      0.22000000	    -12.83666490	      2.11838242	    -14.96660300	     -1.02035707	      0.96401505	     -0.10095920	     29.03789608	     -0.04194439	     -3.45291293	    -32.49949190	     20.17217392	     -4.05833929	     29.14556255	      0.14172236	     -3.45290741	    -30.72239901	     19.76514036	     -2.78955761	     -3.28950507	      0.43541074	      5.30015594
      0.23000000	    -12.83716184	      2.12616713	    -15.03683962	     -1.02033041	      0.96394018	     -0.10089989	     29.05303106	     -0.02017970	     -3.39466912	    -32.51500710	     20.19904895	     -4.06538012	     29.15493581	      0.11238464	     -3.52973914	    -30.75713395	     19.82325932	     -2.79360316	     -3.27851943	      0.43656961	      5.34630489
      0.24000000	    -12.82482974	      2.12942701	    -15.07772486	     -1.02030416	      0.96387425	     -0.10090275	     29.05854020	     -0.01533744	     -3.36820538	    -32.54388692	     20.20817306	     -4.06758101	     29.16214596	      0.10637877	     -3.53716647	    -30.80866178	     19.84368589	     -2.79551249	     -3.28991725	      0.44105730	      5.35682359
      0.25000000	    -12.81979616	      2.12820048	    -15.16029426	     -1.02023089	      0.96377937	     -0.10082914	     29.06826966	      0.01843542	     -3.30141267	    -32.56898322	     20.24939637	     -4.07203421	     29.16819502	      0.06480184	     -3.62080742	    -30.86130823	     19.92426779	     -2.80279448	     -3.28340914	      0.45638689	      5.42150933
      0.26000000	    -12.80603434	      2.12826676	    -15.23421027	     -1.02014943	      0.96368906	     -0.10076659	     29.07463230	      0.04423724	     -3.23972253	    -32.60603918	     20.27136453	     -4.07297372	     29.17042620	      0.03634682	     -3.67224100	    -30.92306305	     19.97596026	     -2.80953816	     -3.28859817	      0.46506819	      5.47565535
      0.27000000	    -12.78902073	      2.12842171	    -15.30613842	     -1.02004534	      0.96359353	     -0.10073498	     29.07893517	      0.06427715	     -3.18490491	    -32.64741259	     20.30292023	     -4.07447378	     29.17066504	      0.01331843	     -3.72222260	    -30.98650798	     20.03313070	     -2.81888838	     -3.29858717	      0.47960712	      5.52818119
      0.28000000	    -12.76794750	      2.12894721	    -15.38192468	     -1.01991541	      0.96350018	     -0.10069375	     29.08019987	      0.08484891	     -3.12500977	    -32.69218786	     20.33340117	     -4.07473328	     29.16549186	     -0.00929664	     -3.77500659	    -31.05180335	     20.09037998	     -2.83148101	     -3.31067154	      0.49140005	      5.58667304
      0.29000000	    -12.74282212	      2.13010414	    -15.45732347	     -1.01975356	      0.96341597	     -0.10065275	     29.07490366	      0.10240116	     -3.06595199	    -32.73673918	     20.36366049	     -4.07325502	     29.15318004	     -0.02893580	     -3.82877145	    -31.11284789	     20.14615427	     -2.84726126	     -3.32533293	      0.50049798	      5.64676370
      0.30000000	    -12.71222693	      2.13070996	    -15.52985843	     -1.01956138	      0.96334548	     -0.10062413	     29.06139856	      0.11660268	     -3.01095508	    -32.77951007	     20.39379176	     -4.06986028	     29.13168238	     -0.04315108	     -3.87849228	    -31.16937757	     20.19988146	     -2.86601272	     -3.34427900	      0.51056930	      5.70529192
      0.31000000	    -12.68760396	      2.13117075	    -15.57391335	     -1.01935661	      0.96327301	     -0.10065850	     29.05230909	      0.11594165	     -2.98332828	    -32.82342295	     20.40649916	     -4.06956057	     29.12169309	     -0.03778501	     -3.87852754	    -31.23053787	     20.22254236	     -2.87394303	     -3.35949713	      0.52448292	      5.73070445
      0.32000000	    -12.64409902	      2.12525606	    -15.65820840	     -1.01906924	      0.96325060	     -0.10060129	     29.00788632	      0.13809518	     -2.91784492	    -32.84684852	     20.45543234	     -4.06267371	     29.06579806	     -0.06243381	     -3.95659904	    -31.26350599	     20.30812926	     -2.90771534	     -3.38576960	      0.53982920	      5.81017770
